<?xml version="1.0" encoding="utf-8"?>
<!-- Generator: Adobe Illustrator 24.2.1, SVG Export Plug-In . SVG Version: 6.00 Build 0)  -->
<svg version="1.1" id="bfca6550-aec3-4c0b-b342-e4bc13b78253"
	 xmlns="http://www.w3.org/2000/svg" xmlns:xlink="http://www.w3.org/1999/xlink" x="0px" y="0px" viewBox="0 0 840.5 427.8"
	 style="enable-background:new 0 0 840.5 427.8;" xml:space="preserve">
<style type="text/css">
	.st0{fill:#4051B3;}
	.st1{fill:#2F2D51;}
	.st2{fill:#111766;}
	.st3{fill:#ADD9C3;}
	.st4{fill:#43BACC;}
	.st5{fill:#3F3D56;}
	.st6{fill:#FFFFFF;}
	.st7{fill:#E6E6E6;}
	.st8{fill:#0086BF;}
</style>
<ellipse class="st0" cx="180.9" cy="328.7" rx="29.1" ry="59.4"/>
<path class="st1" d="M183.6,425.9c-11.7-69.9-0.1-139.6,0-140.3l2.3,0.4c-0.1,0.7-11.6,70,0,139.5L183.6,425.9z"/>
<rect x="179" y="322.8" transform="matrix(0.8818 -0.4717 0.4717 0.8818 -129.8675 129.7663)" class="st1" width="29.8" height="2.3"/>
<rect x="165" y="316.1" transform="matrix(0.4719 -0.8816 0.8816 0.4719 -204.078 321.2222)" class="st1" width="2.3" height="29.8"/>
<rect x="720.1" y="4" class="st2" width="47.7" height="165.1"/>
<polygon class="st3" points="799.2,138 683.2,0 450.4,2.1 309.2,139.7 312,141.5 311,141.5 311,427.7 798.9,427.7 798.9,141.5 "/>
<polygon class="st4" points="683.4,0.3 538.5,170.2 538.5,427.7 798.9,427.7 798.9,137.9 "/>
<rect x="643" y="285.3" class="st5" width="53.2" height="47"/>
<rect x="643" y="203.9" class="st5" width="53.2" height="46.3"/>
<rect x="643" y="285.3" class="st6" width="53.2" height="47"/>
<rect x="643" y="203.9" class="st6" width="53.2" height="46.3"/>
<path class="st7" d="M502.3,419.3c0,0,1.1-23.9,24.5-21.1"/>
<circle class="st0" cx="495.7" cy="384.9" r="11.7"/>
<rect x="493.8" y="404.6" class="st7" width="3.3" height="23.1"/>
<ellipse class="st3" cx="111" cy="237.1" rx="56.9" ry="116.1"/>
<path class="st1" d="M117.3,427c-22.8-136.6-0.2-272.7,0-274l2.3,0.4c-0.2,1.4-22.7,137.1,0,273.3L117.3,427z"/>
<rect x="107.2" y="226.7" transform="matrix(0.8818 -0.4717 0.4717 0.8818 -91.3438 91.2768)" class="st1" width="58.4" height="2.3"/>
<rect x="80.9" y="212.5" transform="matrix(0.4719 -0.8817 0.8817 0.4719 -169.7388 200.0293)" class="st1" width="2.3" height="58.4"/>
<ellipse class="st8" cx="245.8" cy="167.2" rx="77.9" ry="158.9"/>
<path class="st1" d="M254.8,427c-31.1-186.8-0.3-373,0-374.9l2.3,0.4c-0.3,1.9-31.1,187.6,0,374.1L254.8,427z"/>
<rect x="240.6" y="153.4" transform="matrix(0.8818 -0.4717 0.4717 0.8818 -39.7274 150.6029)" class="st1" width="79.9" height="2.3"/>
<rect x="205.1" y="133.5" transform="matrix(0.4719 -0.8817 0.8817 0.4719 -43.9858 273.4249)" class="st1" width="2.3" height="79.9"/>
<rect x="406.6" y="272.8" class="st5" width="53.2" height="47"/>
<rect x="406.6" y="191.4" class="st5" width="53.2" height="46.3"/>
<rect x="406.6" y="272.8" class="st6" width="53.2" height="47"/>
<rect x="406.6" y="191.4" class="st6" width="53.2" height="46.3"/>
</svg>
