<svg xmlns="http://www.w3.org/2000/svg" xmlns:xlink="http://www.w3.org/1999/xlink" viewBox="0 0 639.53 770"><defs><style>.cls-1{fill:url(#名称未設定グラデーション_5);}.cls-2{fill:#5902ff;}.cls-3{fill:url(#名称未設定グラデーション_5-2);}.cls-4{fill:#e0e0e0;}.cls-5{fill:url(#名称未設定グラデーション_5-3);}.cls-6,.cls-9{fill:#fff;}.cls-7{fill:url(#名称未設定グラデーション_4);}.cls-8{fill:#039eff;}.cls-9{stroke:#fff;stroke-miterlimit:10;}.cls-10{fill:url(#名称未設定グラデーション_5-4);}.cls-11{fill:#8103ff;}.cls-12{fill:#02cdff;}</style><linearGradient id="名称未設定グラデーション_5" x1="527.81" y1="-53.4" x2="527.81" y2="616.67" gradientTransform="matrix(1, 0.08, 0.08, -1, -181.16, 654.06)" gradientUnits="userSpaceOnUse"><stop offset="0" stop-color="gray" stop-opacity="0.25"/><stop offset="0.54" stop-color="gray" stop-opacity="0.12"/><stop offset="1" stop-color="gray" stop-opacity="0.1"/></linearGradient><linearGradient id="名称未設定グラデーション_5-2" x1="516.84" y1="15.39" x2="516.84" y2="685.68" gradientTransform="matrix(0.98, -0.19, -0.19, -0.98, -137.53, 817.26)" xlink:href="#名称未設定グラデーション_5"/><linearGradient id="名称未設定グラデーション_5-3" x1="303.93" y1="49.79" x2="303.93" y2="719.57" gradientTransform="matrix(1, 0, 0, -1, 0, 769.25)" xlink:href="#名称未設定グラデーション_5"/><linearGradient id="名称未設定グラデーション_4" x1="838.28" y1="-41.98" x2="844.73" y2="-196.07" gradientTransform="matrix(-1, 0.01, 0.01, 1, 1147.15, 281.52)" gradientUnits="userSpaceOnUse"><stop offset="0" stop-opacity="0.12"/><stop offset="0.55" stop-opacity="0.09"/><stop offset="1" stop-opacity="0.02"/></linearGradient><linearGradient id="名称未設定グラデーション_5-4" x1="142.17" y1="129.85" x2="142.17" y2="195.25" gradientTransform="matrix(1, 0, 0, -1, 0, 769.25)" xlink:href="#名称未設定グラデーション_5"/></defs><g id="レイヤー_2" data-name="レイヤー 2"><g id="_062a65d4-6310-416e-8fb8-777315adf84b" data-name="062a65d4-6310-416e-8fb8-777315adf84b"><polygon class="cls-1" points="585.57 770 95.95 729.85 149.91 62.28 639.53 102.43 585.57 770"/><polygon class="cls-2" points="579.7 760.47 103.27 721.39 155.78 71.81 632.21 110.88 579.7 760.47"/><polygon class="cls-3" points="607.86 657.75 125.44 751.09 0 93.34 482.42 0 607.86 657.75"/><polygon class="cls-4" points="599.67 650.15 130.25 740.98 8.19 100.94 477.61 10.12 599.67 650.15"/><rect class="cls-5" x="58.31" y="49.68" width="491.24" height="669.78"/><rect class="cls-6" x="64.93" y="58.7" width="478.01" height="651.73"/><path class="cls-7" d="M226,171.15c.52,43.61,36.05,78.54,79.35,78s78-36.31,77.46-79.93a79,79,0,0,0-52.75-73.69l.24,20.34A26.74,26.74,0,0,1,304.08,143h0a26.72,26.72,0,0,1-26.87-26.42L277,96.24A79,79,0,0,0,226,171.15Z"/><path class="cls-8" d="M382.85,162.84c0-43.62-35.1-79-78.41-79S226,119.2,226,162.84a79,79,0,0,0,51.86,74.33V216.83a26.72,26.72,0,0,1,26.55-26.74h0A26.72,26.72,0,0,1,331,216.83v20.35A79,79,0,0,0,382.85,162.84Z"/><ellipse class="cls-9" cx="304.49" cy="151.98" rx="30.14" ry="30.36"/><path class="cls-9" d="M304.44,190.09h0c-18.86.09-34.08,12-34.07,26.74v20.35a127.14,127.14,0,0,0,68.14,0V216.83C338.52,202.13,323.3,190.18,304.44,190.09Z"/><rect class="cls-10" x="109.71" y="574" width="64.93" height="65.4"/><rect class="cls-11" x="115.3" y="579.64" width="53.73" height="54.12"/><rect class="cls-12" x="226.13" y="303.38" width="156.72" height="11.28"/><rect class="cls-4" x="226.13" y="319.17" width="264.19" height="11.28"/><rect class="cls-4" x="226.13" y="334.95" width="264.19" height="11.28"/><rect class="cls-12" x="226.13" y="444.33" width="156.72" height="11.28"/><rect class="cls-4" x="226.13" y="460.11" width="264.19" height="11.28"/><rect class="cls-4" x="226.13" y="475.9" width="264.19" height="11.28"/><rect class="cls-11" x="226.13" y="585.27" width="156.72" height="11.28"/><rect class="cls-4" x="226.13" y="601.06" width="264.19" height="11.28"/><rect class="cls-4" x="226.13" y="616.85" width="264.19" height="11.28"/></g></g></svg>